<svg xmlns="http://www.w3.org/2000/svg" width="36.6" height="11.32" viewBox="0 0 36.6 11.32">
  <path id="Path_375" data-name="Path 375" d="M9.1,14.4a4.047,4.047,0,0,1-3.58,1.76A4.533,4.533,0,0,1,2,14.66,5.3,5.3,0,0,1,.68,11,5.3,5.3,0,0,1,2,7.34a4.649,4.649,0,0,1,3.62-1.5A3.968,3.968,0,0,1,9.1,7.62V6h1.5V16H9.1Zm-3.38.4a3.166,3.166,0,0,0,2.56-1.12A4,4,0,0,0,9.18,11a4,4,0,0,0-.9-2.68A3.166,3.166,0,0,0,5.72,7.2a3.322,3.322,0,0,0-2.6,1.12A3.89,3.89,0,0,0,2.18,11a3.89,3.89,0,0,0,.94,2.68A3.322,3.322,0,0,0,5.72,14.8ZM19.68,5.84v1.5H19.5a3.2,3.2,0,0,0-2.64,1.3,4.692,4.692,0,0,0-.96,2.96V16H14.4V6h1.5V8.46a3.791,3.791,0,0,1,3.68-2.62Zm7.44,8.96a2.809,2.809,0,0,0,1.7-.54,3.116,3.116,0,0,0,1.08-1.4h1.62a4.561,4.561,0,0,1-1.68,2.38,5.07,5.07,0,0,1-3.04.92,4.641,4.641,0,0,1-3.58-1.5A5.206,5.206,0,0,1,21.88,11a5.206,5.206,0,0,1,1.34-3.66,4.641,4.641,0,0,1,3.58-1.5,5.07,5.07,0,0,1,3.04.92,4.561,4.561,0,0,1,1.68,2.38H29.9a3.116,3.116,0,0,0-1.08-1.4,2.809,2.809,0,0,0-1.7-.54,3.977,3.977,0,0,0-1.63.3,3.271,3.271,0,0,0-1.13.82A3.84,3.84,0,0,0,23.38,11a3.84,3.84,0,0,0,.98,2.68A3.51,3.51,0,0,0,27.12,14.8Zm9.16-.84V16H34.34V13.96Z" transform="translate(-0.18 -5.34)" fill="#1d1d1d" stroke="#1d1d1d" stroke-width="1"/>
</svg>
