<svg width="24" height="18" viewBox="0 0 24 18" fill="none" xmlns="http://www.w3.org/2000/svg">
<path d="M23.8 4.2001C23.8 4.2001 23.6 2.5001 22.8 1.8001C21.9 0.800098 20.9 0.800098 20.4 0.800098C17 0.600098 12 0.600098 12 0.600098C12 0.600098 7 0.600098 3.6 0.800098C3.1 0.900098 2.1 0.900098 1.2 1.8001C0.5 2.5001 0.2 4.2001 0.2 4.2001C0.2 4.2001 0 6.1001 0 8.1001V9.9001C0 11.8001 0.2 13.8001 0.2 13.8001C0.2 13.8001 0.4 15.5001 1.2 16.2001C2.1 17.2001 3.3 17.1001 3.8 17.2001C5.7 17.4001 12 17.4001 12 17.4001C12 17.4001 17 17.4001 20.4 17.1001C20.9 17.0001 21.9 17.0001 22.8 16.1001C23.5 15.4001 23.8 13.7001 23.8 13.7001C23.8 13.7001 24 11.8001 24 9.8001V8.0001C24 6.1001 23.8 4.2001 23.8 4.2001ZM9.5 12.1001V5.4001L16 8.8001L9.5 12.1001Z" fill="white"/>
</svg>
